# xmcd
#
# Track frame offsets:
#   150
#   13952
#   27208
#   38628
#   51009
#   61806
#   70826
#   85962
#   94603
#   110603
#   124015
#   136811
#   147545
#   160365
#   169591
#   183442
#   195221
#   208766
#   219866
#   233038
#
# Disc length: 3129 seconds
#
# Revision: 0
# Processed by: cddbd v1.5.2PL0 Copyright (c) Steve Scherf et al.
# Submitted via: uFREEDB ActiveX Control 1.5
#
DISCID=100c3714
DTITLE=moacir  - moacir 
DYEAR=1900
DGENRE=Blues
TTITLE0=moacir 1
TTITLE1=moacir 2
TTITLE2=moacir 3
TTITLE3=moacir 4
TTITLE4=moacir 5
TTITLE5=moacir  6
TTITLE6=moacir 7
TTITLE7=moacir 8
TTITLE8=moacir 9
TTITLE9=moacir 10
TTITLE10=moacir 11
TTITLE11=moacir 12
TTITLE12=moacir 13
TTITLE13=moacir  14
TTITLE14=moacir 15
TTITLE15=moacir 16
TTITLE16=moacir 17
TTITLE17=moacir 18
TTITLE18=moacir 19
TTITLE19=moacir 20
EXTD=
EXTT0=
EXTT1=
EXTT2=
EXTT3=
EXTT4=
EXTT5=
EXTT6=
EXTT7=
EXTT8=
EXTT9=
EXTT10=
EXTT11=
EXTT12=
EXTT13=
EXTT14=
EXTT15=
EXTT16=
EXTT17=
EXTT18=
EXTT19=
PLAYORDER=
